<svg xmlns:svg="http://www.w3.org/2000/svg" xmlns="http://www.w3.org/2000/svg" version="1.1" viewBox="0 0 255 255" height="255" width="255"><g transform="matrix(0.51113284,0,0,0.51113284,-4.043562,-3.8005395)"><path d="m223.1 59.5c34.4-7.9 71.4-4.1 103.3 11.1 29.3 13.8 54.1 36.9 70.1 65.1 15.9 28.1 23.2 61.2 19.4 93.2-3.7 27.7-16.4 53.3-31.6 76.5-13.5 20.4-29.5 39-45 57.9-26.5 32-53.5 63.5-80.5 95-31.1-33.3-61.9-66.9-91.7-101.3-20-23-39.4-47.2-51.8-75.3-12.9-28.2-17.3-60-13-90.7 4.5-32.4 19.5-63.1 42.1-86.7 21.2-22.1 48.9-38 78.8-44.8" fill="#fff"/></g><g transform="translate(0,-797.36216)"><g transform="matrix(0.60300911,0,0,0.60300911,54.687045,335.54831)"><path d="M112.5 938.5 43.4 898.8m69.1 138.9 0-99.2 88.3-30.7" style="fill:none;stroke-linejoin:round;stroke-width:3;stroke:#000"/><path d="m43.4 898.8 0 99.2 69.1 39.7 0-99.2z" style="fill:#33449d;stroke-linejoin:round;stroke-width:3;stroke:#000"/><path d="m112.5 938.5 88.3-30.7 0 99.2-88.3 30.7z" style="fill:#ff1200;stroke-linejoin:round;stroke-width:3;stroke:#000"/><path d="m43.4 898.8 88.3-30.7 69.1 39.7-88.3 30.7z" style="fill:#ffeb01;stroke-linejoin:round;stroke-width:3;stroke:#000"/></g></g></svg>