<svg xmlns:svg="http://www.w3.org/2000/svg" xmlns="http://www.w3.org/2000/svg" version="1" viewBox="0 0 255 255" height="255" width="255"><style>.s0{fill:#33449d;}</style><defs><linearGradient><stop offset="0" style="stop-color:#000000;stop-opacity:1"/><stop offset="1" style="stop-color:#000000;stop-opacity:0"/></linearGradient><linearGradient x1="126" y1="81" x2="321" y2="362" gradientUnits="userSpaceOnUse"/><clipPath clipPathUnits="userSpaceOnUse"><rect y="0" x="0" height="255" width="255" fill="#33449d"/></clipPath></defs><g transform="matrix(0.51113284,0,0,0.51113284,-4.043562,-3.8005395)"><path d="m223 60c34-8 71-4 103 11 29 14 54 37 70 65 16 28 23 61 19 93-4 28-16 53-32 77-13 20-29 39-45 58-26 32-53 64-80 95-31-33-62-67-92-101-20-23-39-47-52-75-13-28-17-60-13-91 5-32 20-63 42-87 21-22 49-38 79-45" fill="#fff"/></g><g transform="translate(0,-797.36216)" style="stroke-width:4;stroke:#fff"><g transform="matrix(0.60300911,0,0,0.60300911,54.687045,335.54831)" style="stroke-width:7;stroke:#fff"><path d="M113 939 43 899m69 139 0-99 88-31" style="fill:none;stroke-linejoin:round;stroke-width:7;stroke:#fff"/><path d="m43 899 0 99 69 40 0-99z" style="fill:#33449d;stroke-linejoin:round;stroke-width:7;stroke:#fff"/><path d="m113 939 88-31 0 99-88 31z" style="fill:#ff1200;stroke-linejoin:round;stroke-width:7;stroke:#fff"/><path d="m43 899 88-31 69 40-88 31z" style="fill:#ffeb01;stroke-linejoin:round;stroke-width:7;stroke:#fff"/></g></g></svg>