<?xml version="1.0" encoding="UTF-8" standalone="no"?>
<svg
   xmlns:dc="http://purl.org/dc/elements/1.1/"
   xmlns:cc="http://creativecommons.org/ns#"
   xmlns:rdf="http://www.w3.org/1999/02/22-rdf-syntax-ns#"
   xmlns:svg="http://www.w3.org/2000/svg"
   xmlns="http://www.w3.org/2000/svg"
   version="1.1"
   id="svg4249"
   viewBox="0 0 44.190379 47.170019"
   height="13.312428mm"
   width="12.471507mm">
  <defs
     id="defs4251" />
  <metadata
     id="metadata4254">
    <rdf:RDF>
      <cc:Work
         rdf:about="">
        <dc:format>image/svg+xml</dc:format>
        <dc:type
           rdf:resource="http://purl.org/dc/dcmitype/StillImage" />
        <dc:title></dc:title>
      </cc:Work>
    </rdf:RDF>
  </metadata>
  <g
     transform="translate(-372.55649,-523.06741)"
     id="layer1">
    <path
       id="path70"
       style="fill:#33449d;fill-opacity:1;fill-rule:nonzero;stroke:none"
       d="m 374.08414,532.3722 17.8038,10.42625 0,25.5325 -17.8038,-10.42625 0,-25.5325" />
    <g
       transform="matrix(1.161125,0.68,0,1.345625,273.27914,571.1672)"
       id="g72">
      <path
         id="path74"
         style="fill:none;stroke:#000000;stroke-width:2.62400007;stroke-linecap:butt;stroke-linejoin:bevel;stroke-miterlimit:10;stroke-dasharray:none;stroke-opacity:1"
         d="m 86.813,-72.701 15.333,10e-4 0,18.974 -15.333,0 0,-18.975 z" />
    </g>
    <path
       id="path76"
       style="fill:#ff1200;fill-opacity:1;fill-rule:nonzero;stroke:none"
       d="m 414.94164,534.8997 0,25.50625 -22.99,7.9225 0,-25.5075 22.99,-7.92125" />
    <g
       transform="matrix(0,1.2855,-1.215375,0.418875,273.27914,571.1672)"
       id="g78">
      <path
         id="path80"
         style="fill:none;stroke:#000000;stroke-width:2.98000002;stroke-linecap:butt;stroke-linejoin:bevel;stroke-miterlimit:10;stroke-dasharray:none;stroke-opacity:1"
         d="m 9.761,-116.554 19.841,0 0,18.915 -19.841,0 0,-18.915 z" />
    </g>
    <path
       id="path82"
       style="fill:#ffeb01;fill-opacity:1;fill-rule:nonzero;stroke:none"
       d="m 396.79794,523.9547 17.88,10.66 -23.3288,8.04 -17.8812,-10.66 23.33,-8.04" />
    <g
       transform="matrix(1.228375,0.73225,-1.352125,0.466,273.27914,571.1672)"
       id="g84">
      <path
         id="path86"
         style="fill:none;stroke:#000000;stroke-width:2.43799996;stroke-linecap:butt;stroke-linejoin:bevel;stroke-miterlimit:10;stroke-dasharray:none;stroke-opacity:1"
         d="M -4.019,-95.007 10.43144,-95.383056 10.537,-77.752 -3.7553933,-78.166219 Z" />
    </g>
  </g>
</svg>
